<?xml version="1.0" encoding="UTF-8" standalone="no"?>
<!DOCTYPE svg PUBLIC "-//W3C//DTD SVG 1.1//EN"
 "http://www.w3.org/Graphics/SVG/1.1/DTD/svg11.dtd">
<!-- Generated by graphviz version 2.40.1 (20161225.0304)
 -->
<!-- Title: G Pages: 1 -->
<svg width="386pt" height="360pt"
 viewBox="0.00 0.00 385.73 360.00" xmlns="http://www.w3.org/2000/svg" xmlns:xlink="http://www.w3.org/1999/xlink">
<g id="graph0" class="graph" transform="scale(1 1) rotate(0) translate(4 356)">
<title>G</title>
<polygon fill="#ffffff" stroke="transparent" points="-4,4 -4,-356 381.728,-356 381.728,4 -4,4"/>
<!-- A0 -->
<g id="node1" class="node">
<title>A0</title>
<polygon fill="none" stroke="#000000" points="164.7265,-234 164.7265,-266 294.7265,-266 294.7265,-234 164.7265,-234"/>
<text text-anchor="start" x="205.281" y="-247" font-family="Helvetica,sans-Serif" font-size="10.00" fill="#000000">TinyRouter</text>
<polygon fill="none" stroke="#000000" points="164.7265,-190 164.7265,-234 294.7265,-234 294.7265,-190 164.7265,-190"/>
<text text-anchor="start" x="174.587" y="-215" font-family="Helvetica,sans-Serif" font-size="10.00" fill="#000000">+viewControllerFactories</text>
<text text-anchor="start" x="189.579" y="-203" font-family="Helvetica,sans-Serif" font-size="10.00" fill="#000000">+handlerFactories</text>
<polygon fill="none" stroke="#000000" points="164.7265,-86 164.7265,-190 294.7265,-190 294.7265,-86 164.7265,-86"/>
<text text-anchor="start" x="180.411" y="-171" font-family="Helvetica,sans-Serif" font-size="10.00" fill="#000000">+registerModuleRoute</text>
<text text-anchor="start" x="210.1405" y="-159" font-family="Helvetica,sans-Serif" font-size="10.00" fill="#000000">+register</text>
<text text-anchor="start" x="195.1435" y="-147" font-family="Helvetica,sans-Serif" font-size="10.00" fill="#000000">+viewController</text>
<text text-anchor="start" x="210.1355" y="-135" font-family="Helvetica,sans-Serif" font-size="10.00" fill="#000000">+handler</text>
<text text-anchor="start" x="215.9685" y="-123" font-family="Helvetica,sans-Serif" font-size="10.00" fill="#000000">+push</text>
<text text-anchor="start" x="210.135" y="-111" font-family="Helvetica,sans-Serif" font-size="10.00" fill="#000000">+present</text>
<text text-anchor="start" x="211.8" y="-99" font-family="Helvetica,sans-Serif" font-size="10.00" fill="#000000">+handle</text>
</g>
<!-- A1 -->
<g id="node2" class="node">
<title>A1</title>
<polygon fill="none" stroke="#000000" points="167.425,-36 78.028,-36 78.028,0 167.425,0 167.425,-36"/>
<text text-anchor="middle" x="122.7265" y="-21" font-family="Helvetica,sans-Serif" font-size="10.00" fill="#000000">&lt;&lt;interface&gt;&gt;</text>
<text text-anchor="middle" x="122.7265" y="-9" font-family="Helvetica,sans-Serif" font-size="10.00" fill="#000000">ModuleRoute</text>
</g>
<!-- A0&#45;&gt;A1 -->
<g id="edge1" class="edge">
<title>A0&#45;&gt;A1</title>
<path fill="none" stroke="#000000" stroke-dasharray="5,2" d="M168.7251,-85.9232C158.4778,-70.7917 148.6051,-56.2133 140.6511,-44.4681"/>
<polygon fill="#000000" stroke="#000000" points="134.9682,-36.0765 144.3015,-41.8332 137.7719,-40.2165 140.5755,-44.3565 140.5755,-44.3565 140.5755,-44.3565 137.7719,-40.2165 136.8495,-46.8798 134.9682,-36.0765 134.9682,-36.0765"/>
</g>
<!-- A2 -->
<g id="node3" class="node">
<title>A2</title>
<polygon fill="none" stroke="#000000" points="261.6296,-36 189.8234,-36 189.8234,0 261.6296,0 261.6296,-36"/>
<text text-anchor="middle" x="225.7265" y="-15" font-family="Helvetica,sans-Serif" font-size="10.00" fill="#000000">RouteKey</text>
</g>
<!-- A0&#45;&gt;A2 -->
<g id="edge2" class="edge">
<title>A0&#45;&gt;A2</title>
<path fill="none" stroke="#000000" stroke-dasharray="5,2" d="M227.4461,-85.9232C227.0818,-71.5334 226.7301,-57.6439 226.4408,-46.2155"/>
<polygon fill="#000000" stroke="#000000" points="226.1841,-36.0765 230.9359,-45.9593 226.3107,-41.0749 226.4373,-46.0733 226.4373,-46.0733 226.4373,-46.0733 226.3107,-41.0749 221.9388,-46.1872 226.1841,-36.0765 226.1841,-36.0765"/>
</g>
<!-- A3 -->
<g id="node4" class="node">
<title>A3</title>
<polygon fill="none" stroke="#000000" points="67.5715,-194 5.8815,-194 5.8815,-158 67.5715,-158 67.5715,-194"/>
<text text-anchor="middle" x="36.7265" y="-173" font-family="Helvetica,sans-Serif" font-size="10.00" fill="#000000">RouteA</text>
</g>
<!-- A3&#45;&gt;A1 -->
<g id="edge3" class="edge">
<title>A3&#45;&gt;A1</title>
<path fill="none" stroke="#000000" stroke-dasharray="5,2" d="M43.3544,-157.9195C50.4236,-139.3872 62.4179,-109.9698 75.7265,-86 83.6305,-71.7642 93.7606,-56.7899 102.591,-44.5279"/>
<polygon fill="none" stroke="#000000" points="105.6574,-46.2644 108.7407,-36.1281 100.0093,-42.1292 105.6574,-46.2644"/>
</g>
<!-- A3&#45;&gt;A2 -->
<g id="edge4" class="edge">
<title>A3&#45;&gt;A2</title>
<path fill="none" stroke="#000000" stroke-dasharray="5,2" d="M40.4487,-157.9235C45.3916,-138.0138 55.9057,-106.1549 75.7265,-86 83.6546,-77.9383 139.0527,-53.8778 180.232,-36.6672"/>
<polygon fill="#000000" stroke="#000000" points="189.567,-32.7808 182.0647,-40.7787 184.9511,-34.7026 180.3351,-36.6243 180.3351,-36.6243 180.3351,-36.6243 184.9511,-34.7026 178.6055,-32.47 189.567,-32.7808 189.567,-32.7808"/>
<text text-anchor="middle" x="176.0818" y="-44.5506" font-family="Helvetica,sans-Serif" font-size="10.00" fill="#000000">extend</text>
</g>
<!-- A4 -->
<g id="node5" class="node">
<title>A4</title>
<polygon fill="none" stroke="#000000" points="67.681,-352 -.228,-352 -.228,-316 67.681,-316 67.681,-352"/>
<text text-anchor="middle" x="33.7265" y="-331" font-family="Helvetica,sans-Serif" font-size="10.00" fill="#000000">ModuleA</text>
</g>
<!-- A4&#45;&gt;A3 -->
<g id="edge5" class="edge">
<title>A4&#45;&gt;A3</title>
<path fill="none" stroke="#000000" d="M34.2626,-305.763C34.8743,-273.5491 35.8569,-221.8006 36.3771,-194.3999"/>
<polygon fill="#000000" stroke="#000000" points="34.0706,-315.8754 29.7614,-305.7917 34.1656,-310.8763 34.2606,-305.8772 34.2606,-305.8772 34.2606,-305.8772 34.1656,-310.8763 38.7598,-305.9627 34.0706,-315.8754 34.0706,-315.8754"/>
</g>
<!-- A5 -->
<g id="node6" class="node">
<title>A5</title>
<polygon fill="none" stroke="#000000" points="146.5715,-194 84.8815,-194 84.8815,-158 146.5715,-158 146.5715,-194"/>
<text text-anchor="middle" x="115.7265" y="-173" font-family="Helvetica,sans-Serif" font-size="10.00" fill="#000000">RouteB</text>
</g>
<!-- A5&#45;&gt;A1 -->
<g id="edge6" class="edge">
<title>A5&#45;&gt;A1</title>
<path fill="none" stroke="#000000" stroke-dasharray="5,2" d="M116.5295,-157.8754C117.7362,-130.6388 120.0281,-78.907 121.4611,-46.5623"/>
<polygon fill="none" stroke="#000000" points="124.9652,-46.5451 121.9113,-36.3999 117.972,-46.2352 124.9652,-46.5451"/>
</g>
<!-- A5&#45;&gt;A2 -->
<g id="edge7" class="edge">
<title>A5&#45;&gt;A2</title>
<path fill="none" stroke="#000000" stroke-dasharray="5,2" d="M121.5354,-157.6974C128.0708,-138.725 139.8795,-108.7191 155.7265,-86 166.8272,-70.0854 182.0049,-54.8011 195.3903,-42.7681"/>
<polygon fill="#000000" stroke="#000000" points="203.02,-36.0788 198.4674,-46.055 199.2604,-39.3751 195.5007,-42.6713 195.5007,-42.6713 195.5007,-42.6713 199.2604,-39.3751 192.5341,-39.2877 203.02,-36.0788 203.02,-36.0788"/>
<text text-anchor="middle" x="194.9627" y="-51.384" font-family="Helvetica,sans-Serif" font-size="10.00" fill="#000000">extend</text>
</g>
<!-- A6 -->
<g id="node7" class="node">
<title>A6</title>
<polygon fill="none" stroke="#000000" points="152.681,-352 84.772,-352 84.772,-316 152.681,-316 152.681,-352"/>
<text text-anchor="middle" x="118.7265" y="-331" font-family="Helvetica,sans-Serif" font-size="10.00" fill="#000000">ModuleB</text>
</g>
<!-- A6&#45;&gt;A5 -->
<g id="edge8" class="edge">
<title>A6&#45;&gt;A5</title>
<path fill="none" stroke="#000000" d="M118.1904,-305.763C117.5787,-273.5491 116.5961,-221.8006 116.0759,-194.3999"/>
<polygon fill="#000000" stroke="#000000" points="118.3824,-315.8754 113.6932,-305.9627 118.2874,-310.8763 118.1924,-305.8772 118.1924,-305.8772 118.1924,-305.8772 118.2874,-310.8763 122.6916,-305.7917 118.3824,-315.8754 118.3824,-315.8754"/>
</g>
<!-- A7 -->
<g id="node8" class="node">
<title>A7</title>
<polygon fill="none" stroke="#000000" points="374.6206,-194 312.8324,-194 312.8324,-158 374.6206,-158 374.6206,-194"/>
<text text-anchor="middle" x="343.7265" y="-173" font-family="Helvetica,sans-Serif" font-size="10.00" fill="#000000">RouteC</text>
</g>
<!-- A7&#45;&gt;A1 -->
<g id="edge9" class="edge">
<title>A7&#45;&gt;A1</title>
<path fill="none" stroke="#000000" stroke-dasharray="5,2" d="M340.0287,-157.6701C335.0664,-137.5331 324.3787,-105.4713 303.7265,-86 294.0522,-76.8789 227.0237,-53.0016 177.3393,-36.1269"/>
<polygon fill="none" stroke="#000000" points="178.25,-32.7402 167.6558,-32.8518 176.0072,-39.3712 178.25,-32.7402"/>
</g>
<!-- A7&#45;&gt;A2 -->
<g id="edge10" class="edge">
<title>A7&#45;&gt;A2</title>
<path fill="none" stroke="#000000" stroke-dasharray="5,2" d="M338.2796,-157.8741C331.9711,-138.7776 320.2814,-108.4215 303.7265,-86 291.5715,-69.5376 274.7909,-54.2626 259.9074,-42.3774"/>
<polygon fill="#000000" stroke="#000000" points="251.8754,-36.1373 262.5331,-38.7188 255.8239,-39.2048 259.7723,-42.2724 259.7723,-42.2724 259.7723,-42.2724 255.8239,-39.2048 257.0115,-45.826 251.8754,-36.1373 251.8754,-36.1373"/>
<text text-anchor="middle" x="271.375" y="-37.5832" font-family="Helvetica,sans-Serif" font-size="10.00" fill="#000000">extend</text>
</g>
<!-- A8 -->
<g id="node9" class="node">
<title>A8</title>
<polygon fill="none" stroke="#000000" points="377.7295,-352 309.7235,-352 309.7235,-316 377.7295,-316 377.7295,-352"/>
<text text-anchor="middle" x="343.7265" y="-331" font-family="Helvetica,sans-Serif" font-size="10.00" fill="#000000">ModuleC</text>
</g>
<!-- A8&#45;&gt;A7 -->
<g id="edge11" class="edge">
<title>A8&#45;&gt;A7</title>
<path fill="none" stroke="#000000" d="M343.7265,-305.763C343.7265,-273.5491 343.7265,-221.8006 343.7265,-194.3999"/>
<polygon fill="#000000" stroke="#000000" points="343.7265,-315.8754 339.2266,-305.8753 343.7265,-310.8754 343.7266,-305.8754 343.7266,-305.8754 343.7266,-305.8754 343.7265,-310.8754 348.2266,-305.8754 343.7265,-315.8754 343.7265,-315.8754"/>
</g>
</g>
</svg>
