<?xml version="1.0" encoding="UTF-8" standalone="no"?>
<!DOCTYPE svg PUBLIC "-//W3C//DTD SVG 1.1//EN"
 "http://www.w3.org/Graphics/SVG/1.1/DTD/svg11.dtd">
<!-- Generated by graphviz version 2.40.1 (20161225.0304)
 -->
<!-- Title: G Pages: 1 -->
<svg width="690pt" height="500pt"
 viewBox="0.00 0.00 690.40 500.00" xmlns="http://www.w3.org/2000/svg" xmlns:xlink="http://www.w3.org/1999/xlink">
<g id="graph0" class="graph" transform="scale(1 1) rotate(0) translate(4 496)">
<title>G</title>
<polygon fill="#ffffff" stroke="transparent" points="-4,4 -4,-496 686.3985,-496 686.3985,4 -4,4"/>
<!-- A0 -->
<g id="node1" class="node">
<title>A0</title>
<polygon fill="none" stroke="#000000" points="295.397,-334 295.397,-378 426.397,-378 426.397,-334 295.397,-334"/>
<text text-anchor="start" x="330.048" y="-359" font-family="Helvetica,sans-Serif" font-size="10.00" fill="#000000">&lt;&lt;interface&gt;&gt;</text>
<text text-anchor="start" x="328.3925" y="-347" font-family="Helvetica,sans-Serif" font-size="10.00" fill="#000000">NavigatorType</text>
<polygon fill="none" stroke="#000000" points="295.397,-146 295.397,-334 426.397,-334 426.397,-146 295.397,-146"/>
<text text-anchor="start" x="339.237" y="-315" font-family="Helvetica,sans-Serif" font-size="10.00" fill="#000000">&#45;register()</text>
<text text-anchor="start" x="340.8965" y="-291" font-family="Helvetica,sans-Serif" font-size="10.00" fill="#000000">&#45;handle()</text>
<text text-anchor="start" x="324.24" y="-267" font-family="Helvetica,sans-Serif" font-size="10.00" fill="#000000">&#45;viewController()</text>
<text text-anchor="start" x="339.232" y="-243" font-family="Helvetica,sans-Serif" font-size="10.00" fill="#000000">&#45;handler()</text>
<text text-anchor="start" x="335.0665" y="-219" font-family="Helvetica,sans-Serif" font-size="10.00" fill="#000000">&#45;pushURL()</text>
<text text-anchor="start" x="312.567" y="-195" font-family="Helvetica,sans-Serif" font-size="10.00" fill="#000000">&#45;pushViewController()</text>
<text text-anchor="start" x="327.8435" y="-183" font-family="Helvetica,sans-Serif" font-size="10.00" fill="#000000"> &#45;presentURL()</text>
<text text-anchor="start" x="305.344" y="-171" font-family="Helvetica,sans-Serif" font-size="10.00" fill="#000000"> &#45;presentViewController()</text>
<text text-anchor="start" x="333.3975" y="-159" font-family="Helvetica,sans-Serif" font-size="10.00" fill="#000000"> &#45;openURL()</text>
</g>
<!-- A2 -->
<g id="node3" class="node">
<title>A2</title>
<polygon fill="none" stroke="#000000" points="110.6912,-66 .1028,-66 .1028,-30 110.6912,-30 110.6912,-66"/>
<text text-anchor="middle" x="55.397" y="-51" font-family="Helvetica,sans-Serif" font-size="10.00" fill="#000000">&lt;&lt;interface&gt;&gt;</text>
<text text-anchor="middle" x="55.397" y="-39" font-family="Helvetica,sans-Serif" font-size="10.00" fill="#000000">NavigatorDelegate</text>
</g>
<!-- A0&#45;&gt;A2 -->
<g id="edge2" class="edge">
<title>A0&#45;&gt;A2</title>
<path fill="none" stroke="#000000" stroke-dasharray="5,2" d="M294.8237,-217.4508C246.3645,-184.3336 178.923,-137.8347 120.397,-96 109.681,-88.3401 98.0812,-79.8417 87.6877,-72.1504"/>
<polygon fill="#000000" stroke="#000000" points="79.6508,-66.1866 90.363,-68.532 83.6661,-69.1661 87.6814,-72.1457 87.6814,-72.1457 87.6814,-72.1457 83.6661,-69.1661 84.9998,-75.7594 79.6508,-66.1866 79.6508,-66.1866"/>
</g>
<!-- A3 -->
<g id="node4" class="node">
<title>A3</title>
<polygon fill="none" stroke="#000000" points="279.6832,-66 129.1108,-66 129.1108,-30 279.6832,-30 279.6832,-66"/>
<text text-anchor="middle" x="204.397" y="-51" font-family="Helvetica,sans-Serif" font-size="10.00" fill="#000000">&lt;&lt;interface&gt;&gt;</text>
<text text-anchor="middle" x="204.397" y="-39" font-family="Helvetica,sans-Serif" font-size="10.00" fill="#000000">UINavigationControllerType</text>
</g>
<!-- A0&#45;&gt;A3 -->
<g id="edge3" class="edge">
<title>A0&#45;&gt;A3</title>
<path fill="none" stroke="#000000" stroke-dasharray="5,2" d="M294.6911,-171.865C269.0312,-136.6649 241.5505,-98.967 223.7359,-74.529"/>
<polygon fill="#000000" stroke="#000000" points="217.6312,-66.1546 227.1583,-71.5847 220.5766,-70.1951 223.522,-74.2355 223.522,-74.2355 223.522,-74.2355 220.5766,-70.1951 219.8856,-76.8863 217.6312,-66.1546 217.6312,-66.1546"/>
</g>
<!-- A4 -->
<g id="node5" class="node">
<title>A4</title>
<polygon fill="none" stroke="#000000" points="423.1182,-66 297.6758,-66 297.6758,-30 423.1182,-30 423.1182,-66"/>
<text text-anchor="middle" x="360.397" y="-51" font-family="Helvetica,sans-Serif" font-size="10.00" fill="#000000">&lt;&lt;interface&gt;&gt;</text>
<text text-anchor="middle" x="360.397" y="-39" font-family="Helvetica,sans-Serif" font-size="10.00" fill="#000000">UIViewControllerType</text>
</g>
<!-- A0&#45;&gt;A4 -->
<g id="edge4" class="edge">
<title>A0&#45;&gt;A4</title>
<path fill="none" stroke="#000000" stroke-dasharray="5,2" d="M360.397,-145.9189C360.397,-119.9214 360.397,-94.644 360.397,-76.2851"/>
<polygon fill="#000000" stroke="#000000" points="360.397,-66.0632 364.8971,-76.0632 360.397,-71.0632 360.3971,-76.0632 360.3971,-76.0632 360.3971,-76.0632 360.397,-71.0632 355.8971,-76.0633 360.397,-66.0632 360.397,-66.0632"/>
</g>
<!-- A5 -->
<g id="node6" class="node">
<title>A5</title>
<polygon fill="none" stroke="#000000" points="441.397,-48 441.397,-92 541.397,-92 541.397,-48 441.397,-48"/>
<text text-anchor="start" x="460.548" y="-73" font-family="Helvetica,sans-Serif" font-size="10.00" fill="#000000">&lt;&lt;interface&gt;&gt;</text>
<text text-anchor="start" x="456.1185" y="-61" font-family="Helvetica,sans-Serif" font-size="10.00" fill="#000000">URLConvertible</text>
<polygon fill="none" stroke="#000000" points="441.397,-4 441.397,-48 541.397,-48 541.397,-4 441.397,-4"/>
<text text-anchor="start" x="471.3965" y="-29" font-family="Helvetica,sans-Serif" font-size="10.00" fill="#000000">&#45;urlValue</text>
<text text-anchor="start" x="451.394" y="-17" font-family="Helvetica,sans-Serif" font-size="10.00" fill="#000000">&#45;queryParameters</text>
</g>
<!-- A0&#45;&gt;A5 -->
<g id="edge5" class="edge">
<title>A0&#45;&gt;A5</title>
<path fill="none" stroke="#000000" stroke-dasharray="5,2" d="M426.0889,-154.6865C437.5082,-136.0321 448.9198,-117.3903 458.9352,-101.0293"/>
<polygon fill="#000000" stroke="#000000" points="464.3468,-92.1888 462.9638,-103.0672 461.7363,-96.4533 459.1258,-100.7177 459.1258,-100.7177 459.1258,-100.7177 461.7363,-96.4533 455.2878,-98.3683 464.3468,-92.1888 464.3468,-92.1888"/>
</g>
<!-- A6 -->
<g id="node7" class="node">
<title>A6</title>
<polygon fill="none" stroke="#000000" points="559.397,-64 559.397,-96 655.397,-96 655.397,-64 559.397,-64"/>
<text text-anchor="start" x="579.3415" y="-77" font-family="Helvetica,sans-Serif" font-size="10.00" fill="#000000">URLMatcher</text>
<polygon fill="none" stroke="#000000" points="559.397,-32 559.397,-64 655.397,-64 655.397,-32 559.397,-32"/>
<text text-anchor="start" x="569.3385" y="-45" font-family="Helvetica,sans-Serif" font-size="10.00" fill="#000000">&#45;valueConverters</text>
<polygon fill="none" stroke="#000000" points="559.397,0 559.397,-32 655.397,-32 655.397,0 559.397,0"/>
<text text-anchor="start" x="592.1195" y="-13" font-family="Helvetica,sans-Serif" font-size="10.00" fill="#000000">&#45;match</text>
</g>
<!-- A0&#45;&gt;A6 -->
<g id="edge6" class="edge">
<title>A0&#45;&gt;A6</title>
<path fill="none" stroke="#000000" stroke-dasharray="5,2" d="M426.1493,-153.5769C428.8271,-150.9333 431.577,-148.3993 434.397,-146 477.156,-109.6204 502.6365,-125.5082 550.397,-96 550.5827,-95.8853 550.7685,-95.7699 550.9543,-95.654"/>
<polygon fill="#000000" stroke="#000000" points="559.299,-90.1034 553.465,-99.3887 555.1358,-92.8726 550.9727,-95.6418 550.9727,-95.6418 550.9727,-95.6418 555.1358,-92.8726 548.4804,-91.895 559.299,-90.1034 559.299,-90.1034"/>
</g>
<!-- A1 -->
<g id="node2" class="node">
<title>A1</title>
<polygon fill="none" stroke="#000000" points="395.6793,-478 325.1147,-478 325.1147,-442 395.6793,-442 395.6793,-478"/>
<text text-anchor="middle" x="360.397" y="-457" font-family="Helvetica,sans-Serif" font-size="10.00" fill="#000000">Navigator</text>
</g>
<!-- A1&#45;&gt;A0 -->
<g id="edge1" class="edge">
<title>A1&#45;&gt;A0</title>
<path fill="none" stroke="#000000" stroke-dasharray="5,2" d="M360.397,-441.7275C360.397,-428.5041 360.397,-409.335 360.397,-388.3906"/>
<polygon fill="none" stroke="#000000" points="363.8971,-388.3226 360.397,-378.3227 356.8971,-388.3227 363.8971,-388.3226"/>
</g>
<!-- A7 -->
<g id="node8" class="node">
<title>A7</title>
<polygon fill="none" stroke="#000000" points="476.397,-460 476.397,-492 562.397,-492 562.397,-460 476.397,-460"/>
<text text-anchor="start" x="486.058" y="-473" font-family="Helvetica,sans-Serif" font-size="10.00" fill="#000000">NavigationMap</text>
<polygon fill="none" stroke="#000000" points="476.397,-428 476.397,-460 562.397,-460 562.397,-428 476.397,-428"/>
<text text-anchor="start" x="498.702" y="-441" font-family="Helvetica,sans-Serif" font-size="10.00" fill="#000000">+initialize</text>
</g>
<!-- A7&#45;&gt;A0 -->
<g id="edge7" class="edge">
<title>A7&#45;&gt;A0</title>
<path fill="none" stroke="#000000" stroke-dasharray="5,2" d="M482.3491,-427.8356C466.7014,-413.3732 448.8072,-395.6171 434.397,-378 433.6975,-377.1448 432.9991,-376.2827 432.3021,-375.4141"/>
<polygon fill="#000000" stroke="#000000" points="426.0689,-367.4378 435.7721,-372.5464 429.1476,-371.3775 432.2264,-375.3173 432.2264,-375.3173 432.2264,-375.3173 429.1476,-371.3775 428.6806,-378.0881 426.0689,-367.4378 426.0689,-367.4378"/>
</g>
<!-- A8 -->
<g id="node9" class="node">
<title>A8</title>
<polygon fill="none" stroke="#000000" points="511.3515,-280 443.4425,-280 443.4425,-244 511.3515,-244 511.3515,-280"/>
<text text-anchor="middle" x="477.397" y="-259" font-family="Helvetica,sans-Serif" font-size="10.00" fill="#000000">ModuleA</text>
</g>
<!-- A7&#45;&gt;A8 -->
<g id="edge8" class="edge">
<title>A7&#45;&gt;A8</title>
<path fill="none" stroke="#000000" d="M512.5555,-427.7472C504.4315,-389.4485 491.016,-326.2039 483.3186,-289.9163"/>
<polygon fill="#000000" stroke="#000000" points="481.2169,-280.0081 487.6941,-288.8567 482.2545,-284.8993 483.292,-289.7905 483.292,-289.7905 483.292,-289.7905 482.2545,-284.8993 478.89,-290.7243 481.2169,-280.0081 481.2169,-280.0081"/>
</g>
<!-- A9 -->
<g id="node10" class="node">
<title>A9</title>
<polygon fill="none" stroke="#000000" points="596.3515,-280 528.4425,-280 528.4425,-244 596.3515,-244 596.3515,-280"/>
<text text-anchor="middle" x="562.397" y="-259" font-family="Helvetica,sans-Serif" font-size="10.00" fill="#000000">ModuleB</text>
</g>
<!-- A7&#45;&gt;A9 -->
<g id="edge9" class="edge">
<title>A7&#45;&gt;A9</title>
<path fill="none" stroke="#000000" d="M526.4014,-427.7472C534.7188,-389.4485 548.4537,-326.2039 556.3344,-289.9163"/>
<polygon fill="#000000" stroke="#000000" points="558.4861,-280.0081 560.7613,-290.7354 557.425,-284.8943 556.3638,-289.7804 556.3638,-289.7804 556.3638,-289.7804 557.425,-284.8943 551.9663,-288.8253 558.4861,-280.0081 558.4861,-280.0081"/>
</g>
<!-- A10 -->
<g id="node11" class="node">
<title>A10</title>
<polygon fill="none" stroke="#000000" points="682.4,-280 614.394,-280 614.394,-244 682.4,-244 682.4,-280"/>
<text text-anchor="middle" x="648.397" y="-259" font-family="Helvetica,sans-Serif" font-size="10.00" fill="#000000">ModuleC</text>
</g>
<!-- A7&#45;&gt;A10 -->
<g id="edge10" class="edge">
<title>A7&#45;&gt;A10</title>
<path fill="none" stroke="#000000" d="M560.5508,-427.7395C576.2463,-413.7889 593.2613,-396.4386 605.397,-378 623.4781,-350.5281 635.3134,-314.4184 641.9057,-289.833"/>
<polygon fill="#000000" stroke="#000000" points="644.4128,-280.0608 646.2865,-290.8654 643.1702,-284.9039 641.9276,-289.7471 641.9276,-289.7471 641.9276,-289.7471 643.1702,-284.9039 637.5688,-288.6287 644.4128,-280.0608 644.4128,-280.0608"/>
</g>
</g>
</svg>
